<svg width="192" height="192" viewBox="0 0 512 512" xmlns="http://www.w3.org/2000/svg">
  <!-- Main circular background -->
  <circle cx="256" cy="256" r="256" fill="#2F5233"/>

  <!-- Three people heads at top -->
  <circle cx="166" cy="150" r="38" fill="#E8DCC8"/>
  <circle cx="256" cy="120" r="46" fill="#E8DCC8"/>
  <circle cx="346" cy="150" r="38" fill="#E8DCC8"/>

  <!-- Heart shape (cream color) -->
  <path d="M 256 420
           C 180 420, 140 370, 140 310
           C 140 265, 170 235, 210 235
           C 235 235, 255 247, 256 265
           C 257 247, 277 235, 302 235
           C 342 235, 372 265, 372 310
           C 372 370, 332 420, 256 420 Z"
        fill="#E8DCC8"/>

  <!-- V-shape connecting people to heart -->
  <path d="M 226 180 L 242 220 L 256 205 L 270 220 L 286 180"
        stroke="#2F5233"
        stroke-width="16"
        fill="none"
        stroke-linecap="round"
        stroke-linejoin="round"/>

  <!-- Plant/seedling in center of heart -->
  <!-- Stem -->
  <path d="M 256 290 L 256 350"
        stroke="#2F5233"
        stroke-width="10"
        fill="none"
        stroke-linecap="round"/>

  <!-- Left leaf -->
  <path d="M 230 280 Q 226 295, 237 307 Q 247 311, 253 303 Z"
        fill="#D8A82E"/>

  <!-- Right leaf -->
  <path d="M 282 280 Q 286 295, 275 307 Q 265 311, 259 303 Z"
        fill="#D8A82E"/>

  <!-- Circuit/tech dots (right side of heart) -->
  <circle cx="325" cy="270" r="11" fill="#2F5233"/>
  <circle cx="325" cy="315" r="11" fill="#2F5233"/>

  <!-- Circuit connections -->
  <path d="M 325 281 L 325 304"
        stroke="#2F5233"
        stroke-width="4"/>

  <!-- Medical symbol curves -->
  <path d="M 302 345 Q 313 360, 325 345"
        stroke="#2F5233"
        stroke-width="8"
        fill="none"
        stroke-linecap="round"/>

  <path d="M 235 350 Q 220 365, 235 380"
        stroke="#2F5233"
        stroke-width="8"
        fill="none"
        stroke-linecap="round"/>
</svg>