<svg width="760" height="760" viewBox="0 0 760 760" xmlns="http://www.w3.org/2000/svg">
  <!-- Main circular background -->
  <circle cx="380" cy="295" r="230" fill="#2F5233"/>

  <!-- Three people heads at top -->
  <circle cx="245" cy="180" r="35" fill="#E8DCC8"/>
  <circle cx="380" cy="145" r="42" fill="#E8DCC8"/>
  <circle cx="515" cy="180" r="35" fill="#E8DCC8"/>

  <!-- Heart shape (cream color) -->
  <path d="M 380 480
           C 280 480, 220 420, 220 340
           C 220 280, 260 240, 310 240
           C 340 240, 365 255, 380 280
           C 395 255, 420 240, 450 240
           C 500 240, 540 280, 540 340
           C 540 420, 480 480, 380 480 Z"
        fill="#E8DCC8"/>

  <!-- V-shape connecting people to heart -->
  <path d="M 340 210 L 360 260 L 380 240 L 400 260 L 420 210"
        stroke="#2F5233"
        stroke-width="18"
        fill="none"
        stroke-linecap="round"
        stroke-linejoin="round"/>

  <!-- Plant/seedling in center of heart -->
  <!-- Stem -->
  <path d="M 380 330 L 380 400"
        stroke="#2F5233"
        stroke-width="8"
        fill="none"
        stroke-linecap="round"/>

  <!-- Left leaf -->
  <path d="M 340 315 Q 335 335, 350 350 Q 365 355, 375 345 Z"
        fill="#D8A82E"/>

  <!-- Right leaf -->
  <path d="M 420 315 Q 425 335, 410 350 Q 395 355, 385 345 Z"
        fill="#D8A82E"/>

  <!-- Circuit/tech dots (right side of heart) -->
  <circle cx="485" cy="280" r="12" fill="#2F5233"/>
  <circle cx="485" cy="340" r="12" fill="#2F5233"/>

  <!-- Circuit connections -->
  <path d="M 485 292 L 485 328"
        stroke="#2F5233"
        stroke-width="4"/>

  <!-- Stethoscope/medical symbol curves -->
  <path d="M 455 380 Q 470 400, 485 380"
        stroke="#2F5233"
        stroke-width="8"
        fill="none"
        stroke-linecap="round"/>

  <path d="M 360 390 Q 340 410, 360 430"
        stroke="#2F5233"
        stroke-width="8"
        fill="none"
        stroke-linecap="round"/>

  <!-- TheyCare text -->
  <text x="380" y="600"
        font-family="Arial, Helvetica, sans-serif"
        font-size="120"
        font-weight="700"
        fill="#2F5233"
        text-anchor="middle">TheyCare</text>

  <!-- PORTAL text -->
  <text x="380" y="680"
        font-family="Arial, Helvetica, sans-serif"
        font-size="68"
        font-weight="600"
        fill="#D8A82E"
        text-anchor="middle"
        letter-spacing="8">PORTAL</text>
</svg>
